<?xml version="1.0" encoding="UTF-8" standalone="no"?>
<!DOCTYPE svg PUBLIC "-//W3C//DTD SVG 1.1//EN" "http://www.w3.org/Graphics/SVG/1.1/DTD/svg11.dtd">
<svg width="100%" height="100%" viewBox="0 0 300 150" version="1.1" xmlns="http://www.w3.org/2000/svg" xmlns:xlink="http://www.w3.org/1999/xlink" xml:space="preserve" xmlns:serif="http://www.serif.com/" style="fill-rule:evenodd;clip-rule:evenodd;stroke-linecap:round;stroke-linejoin:round;stroke-miterlimit:1.5;">
    <g transform="matrix(2.19523,0,0,2.19523,-130.576,-199.676)">
        <g transform="matrix(-1.03319,0.369097,-0.369097,-1.03319,212.65,163.168)">
            <path d="M94.835,63.86C103.02,63.86 109.879,69.585 111.621,77.246C111.901,78.477 112.049,79.758 112.049,81.073C112.049,90.573 104.336,98.286 94.835,98.286C85.335,98.286 77.622,90.573 77.622,81.073" style="fill:none;stroke:white;stroke-width:2.08px;"/>
        </g>
        <g transform="matrix(0.532888,0,0,0.642567,43.5038,63.6718)">
            <path d="M187.981,59.105C235.719,59.105 274.476,78.578 274.476,102.562C274.476,126.547 235.416,125.23 187.679,125.23C139.941,125.23 101.487,126.547 101.487,102.562C101.487,78.578 140.244,59.105 187.981,59.105Z" style="fill:none;stroke:white;stroke-width:3.86px;"/>
        </g>
        <g transform="matrix(-0.639366,-0.0698004,0.0560975,-0.513848,188.259,231.532)">
            <path d="M112.868,142.682C112.868,137.502 118.081,133.297 124.502,133.297C130.923,133.297 136.136,137.502 136.136,142.682" style="fill:none;stroke:white;stroke-width:3.9px;"/>
        </g>
        <g transform="matrix(-0.641147,0.0509166,-0.0409208,-0.515279,254.675,217.038)">
            <path d="M112.868,142.682C112.868,137.502 118.081,133.297 124.502,133.297C130.923,133.297 136.136,137.502 136.136,142.682" style="fill:none;stroke:white;stroke-width:3.9px;"/>
        </g>
        <g transform="matrix(1.43307,0,0,1.41396,-34.0747,-44.9953)">
            <ellipse cx="81.125" cy="107.932" rx="2.442" ry="2.475" style="fill:white;"/>
        </g>
        <g transform="matrix(3.60688,0,0,3.60688,-265.124,-311.209)">
            <path d="M108.519,125.011C108.488,125.038 108.416,125.042 108.303,125.023C108.252,125.015 108.23,124.931 108.238,124.771C108.25,124.486 108.256,124.363 108.256,124.402C108.263,124.011 108.267,123.755 108.267,123.634C108.267,123.548 108.271,123.4 108.279,123.189C108.287,123.001 108.289,122.853 108.285,122.743C108.285,122.704 108.287,122.456 108.291,121.999C108.295,121.57 108.291,121.179 108.279,120.827C108.263,120.484 108.252,120.093 108.244,119.656C108.236,119.14 108.232,118.872 108.232,118.853L108.244,117.699C108.244,117.226 108.232,116.974 108.209,116.943C108.189,116.888 107.931,116.882 107.435,116.925C107.318,116.933 107.285,116.861 107.336,116.708C107.355,116.634 107.693,116.613 108.349,116.644C108.799,116.632 109.103,116.628 109.263,116.632C109.4,116.632 109.469,116.667 109.469,116.738C109.469,116.839 109.429,116.894 109.351,116.902C109.281,116.906 109.117,116.906 108.859,116.902C108.722,116.902 108.636,116.913 108.601,116.937C108.523,116.991 108.484,117.351 108.484,118.015C108.484,119.495 108.494,120.386 108.513,120.687C108.553,121.241 108.56,122.337 108.537,123.974C108.537,124.072 108.543,124.202 108.554,124.366C108.574,124.566 108.584,124.671 108.584,124.683C108.592,124.866 108.57,124.976 108.519,125.011Z" style="fill-rule:nonzero;stroke:white;stroke-width:0.25px;stroke-linecap:butt;stroke-miterlimit:1.41421;fill:white;"/>
            <path d="M112.855,123.2C112.875,124.036 112.695,124.589 112.316,124.859C112.152,124.976 111.928,125.034 111.642,125.034C111.377,125.034 111.136,124.915 110.922,124.677C110.734,124.47 110.584,124.183 110.47,123.816C110.369,123.468 110.308,122.96 110.289,122.292L110.289,119.685C110.289,119.208 110.293,118.697 110.301,118.15C110.304,117.993 110.306,117.822 110.306,117.634C110.31,117.478 110.312,117.39 110.312,117.37C110.312,117.324 110.308,117.236 110.301,117.107C110.293,116.97 110.289,116.88 110.289,116.837C110.289,116.697 110.344,116.632 110.453,116.644C110.57,116.652 110.635,116.722 110.646,116.855C110.642,116.816 110.64,117.017 110.64,117.458C110.594,119.572 110.58,120.808 110.599,121.167C110.65,122.265 110.676,122.82 110.676,122.831C110.726,123.3 110.775,123.62 110.822,123.792C110.904,124.085 111.011,124.296 111.144,124.425C111.347,124.62 111.539,124.712 111.719,124.7C111.949,124.685 112.115,124.609 112.217,124.472C112.396,124.23 112.511,123.857 112.562,123.353C112.582,123.15 112.582,122.736 112.562,122.111L112.556,121.431C112.541,120.712 112.535,120.191 112.539,119.866C112.543,119.667 112.545,119.23 112.545,118.554C112.51,117.519 112.49,116.96 112.486,116.878C112.478,116.714 112.539,116.632 112.668,116.632C112.761,116.632 112.822,116.691 112.849,116.808C112.869,116.902 112.875,117.228 112.867,117.786C112.863,118.044 112.855,118.642 112.844,119.579C112.847,120.954 112.849,121.675 112.849,121.741L112.855,123.2Z" style="fill-rule:nonzero;stroke:white;stroke-width:0.25px;stroke-linecap:butt;stroke-miterlimit:1.41421;fill:white;"/>
            <path d="M114.297,118.952C114.297,119.077 114.308,119.337 114.332,119.732C114.359,120.13 114.373,120.497 114.373,120.833C114.299,123.325 114.293,124.585 114.355,124.613C114.668,124.8 115,124.728 115.351,124.396C115.605,124.13 115.812,123.738 115.972,123.218C116.199,122.48 116.281,121.538 116.219,120.394C116.113,118.058 115.549,116.896 114.525,116.907C114.381,116.911 114.304,116.952 114.297,117.031L114.297,118.952ZM114.056,121.466C114.056,121.38 114.053,120.999 114.045,120.324C114.037,119.757 114.031,119.308 114.027,118.976C114.027,118.628 114.019,118.161 114.004,117.575C113.961,117.087 113.941,116.818 113.945,116.767C113.945,116.654 114.133,116.605 114.508,116.62C114.914,116.62 115.26,116.757 115.545,117.031C115.744,117.222 115.926,117.574 116.09,118.085C116.344,118.777 116.47,119.773 116.47,121.074C116.47,121.726 116.439,122.249 116.377,122.644C116.24,123.507 115.996,124.165 115.644,124.618C115.441,124.876 115.117,125.013 114.672,125.029C114.297,125.044 114.078,125.015 114.015,124.941C113.98,124.929 113.994,123.771 114.056,121.466Z" style="fill-rule:nonzero;stroke:white;stroke-width:0.25px;stroke-linecap:butt;stroke-miterlimit:1.41421;fill:white;"/>
            <path d="M117.842,124.724C117.896,124.767 118.15,124.779 118.603,124.759C119.127,124.732 119.381,124.792 119.365,124.941C119.377,125.023 118.947,125.052 118.076,125.029C117.709,125.036 117.517,125.025 117.502,124.993C117.482,124.97 117.474,124.751 117.478,124.337C117.474,124.247 117.474,123.958 117.478,123.47C117.486,122.919 117.49,122.552 117.49,122.368C117.482,119.697 117.472,118.029 117.461,117.365C117.426,116.892 117.513,116.652 117.724,116.644C118.142,116.624 118.428,116.624 118.58,116.644C118.603,116.648 118.666,116.65 118.767,116.65C118.873,116.65 118.955,116.652 119.013,116.656C119.213,116.671 119.295,116.724 119.26,116.814C119.232,116.88 118.967,116.906 118.463,116.89C117.986,116.878 117.752,116.929 117.76,117.042L117.736,118.741C117.775,119.648 117.806,120.13 117.83,120.189C117.834,120.228 118.074,120.226 118.551,120.183C118.617,120.183 118.678,120.24 118.732,120.353C118.787,120.462 118.773,120.515 118.691,120.511C118.379,120.495 118.185,120.493 118.111,120.505C117.916,120.536 117.818,120.593 117.818,120.675C117.76,122.726 117.732,123.835 117.736,124.003C117.74,124.425 117.775,124.665 117.842,124.724Z" style="fill-rule:nonzero;stroke:white;stroke-width:0.25px;stroke-linecap:butt;stroke-miterlimit:1.41421;fill:white;"/>
        </g>
    </g>
</svg>
